<svg xmlns="http://www.w3.org/2000/svg" width="144" height="144" viewBox="0 0 144 144"><title>QR image placeholder</title><rect width="144" height="144" rx="5" fill="#fff"/><rect x="12" y="12" width="36" height="36" rx="3" fill="#424242"/><rect x="18" y="18" width="24" height="24" fill="#fff"/><rect x="24" y="24" width="12" height="12" fill="#424242"/><rect x="96" y="12" width="36" height="36" rx="3" fill="#424242"/><rect x="102" y="18" width="24" height="24" fill="#fff"/><rect x="108" y="24" width="12" height="12" fill="#424242"/><rect x="12" y="96" width="36" height="36" rx="3" fill="#424242"/><rect x="18" y="102" width="24" height="24" fill="#fff"/><rect x="24" y="108" width="12" height="12" fill="#424242"/><rect x="60" y="12" width="6" height="6" fill="#686868"/><rect x="66" y="12" width="6" height="6" fill="#686868"/><rect x="84" y="12" width="6" height="6" fill="#686868"/><rect x="60" y="18" width="6" height="6" fill="#686868"/><rect x="66" y="18" width="6" height="6" fill="#686868"/><rect x="72" y="18" width="6" height="6" fill="#686868"/><rect x="54" y="24" width="6" height="6" fill="#686868"/><rect x="60" y="24" width="6" height="6" fill="#686868"/><rect x="66" y="24" width="6" height="6" fill="#686868"/><rect x="72" y="24" width="6" height="6" fill="#686868"/><rect x="78" y="24" width="6" height="6" fill="#686868"/><rect x="84" y="24" width="6" height="6" fill="#686868"/><rect x="54" y="30" width="6" height="6" fill="#686868"/><rect x="60" y="30" width="6" height="6" fill="#686868"/><rect x="54" y="36" width="6" height="6" fill="#686868"/><rect x="60" y="36" width="6" height="6" fill="#686868"/><rect x="78" y="36" width="6" height="6" fill="#686868"/><rect x="60" y="42" width="6" height="6" fill="#686868"/><rect x="72" y="42" width="6" height="6" fill="#686868"/><rect x="84" y="42" width="6" height="6" fill="#686868"/><rect x="60" y="48" width="6" height="6" fill="#686868"/><rect x="78" y="48" width="6" height="6" fill="#686868"/><rect x="18" y="54" width="6" height="6" fill="#686868"/><rect x="24" y="54" width="6" height="6" fill="#686868"/><rect x="102" y="54" width="6" height="6" fill="#686868"/><rect x="108" y="54" width="6" height="6" fill="#686868"/><rect x="126" y="54" width="6" height="6" fill="#686868"/><rect x="18" y="60" width="6" height="6" fill="#686868"/><rect x="24" y="60" width="6" height="6" fill="#686868"/><rect x="30" y="60" width="6" height="6" fill="#686868"/><rect x="102" y="60" width="6" height="6" fill="#686868"/><rect x="108" y="60" width="6" height="6" fill="#686868"/><rect x="114" y="60" width="6" height="6" fill="#686868"/><rect x="12" y="66" width="6" height="6" fill="#686868"/><rect x="18" y="66" width="6" height="6" fill="#686868"/><rect x="24" y="66" width="6" height="6" fill="#686868"/><rect x="30" y="66" width="6" height="6" fill="#686868"/><rect x="36" y="66" width="6" height="6" fill="#686868"/><rect x="102" y="66" width="6" height="6" fill="#686868"/><rect x="108" y="66" width="6" height="6" fill="#686868"/><rect x="114" y="66" width="6" height="6" fill="#686868"/><rect x="120" y="66" width="6" height="6" fill="#686868"/><rect x="126" y="66" width="6" height="6" fill="#686868"/><rect x="12" y="72" width="6" height="6" fill="#686868"/><rect x="18" y="72" width="6" height="6" fill="#686868"/><rect x="102" y="72" width="6" height="6" fill="#686868"/><rect x="12" y="78" width="6" height="6" fill="#686868"/><rect x="18" y="78" width="6" height="6" fill="#686868"/><rect x="36" y="78" width="6" height="6" fill="#686868"/><rect x="102" y="78" width="6" height="6" fill="#686868"/><rect x="120" y="78" width="6" height="6" fill="#686868"/><rect x="18" y="84" width="6" height="6" fill="#686868"/><rect x="30" y="84" width="6" height="6" fill="#686868"/><rect x="102" y="84" width="6" height="6" fill="#686868"/><rect x="114" y="84" width="6" height="6" fill="#686868"/><rect x="126" y="84" width="6" height="6" fill="#686868"/><rect x="60" y="90" width="6" height="6" fill="#686868"/><rect x="78" y="90" width="6" height="6" fill="#686868"/><rect x="90" y="90" width="6" height="6" fill="#686868"/><rect x="102" y="90" width="6" height="6" fill="#686868"/><rect x="120" y="90" width="6" height="6" fill="#686868"/><rect x="60" y="96" width="6" height="6" fill="#686868"/><rect x="66" y="96" width="6" height="6" fill="#686868"/><rect x="84" y="96" width="6" height="6" fill="#686868"/><rect x="102" y="96" width="6" height="6" fill="#686868"/><rect x="108" y="96" width="6" height="6" fill="#686868"/><rect x="126" y="96" width="6" height="6" fill="#686868"/><rect x="60" y="102" width="6" height="6" fill="#686868"/><rect x="66" y="102" width="6" height="6" fill="#686868"/><rect x="72" y="102" width="6" height="6" fill="#686868"/><rect x="102" y="102" width="6" height="6" fill="#686868"/><rect x="108" y="102" width="6" height="6" fill="#686868"/><rect x="114" y="102" width="6" height="6" fill="#686868"/><rect x="54" y="108" width="6" height="6" fill="#686868"/><rect x="60" y="108" width="6" height="6" fill="#686868"/><rect x="66" y="108" width="6" height="6" fill="#686868"/><rect x="72" y="108" width="6" height="6" fill="#686868"/><rect x="78" y="108" width="6" height="6" fill="#686868"/><rect x="84" y="108" width="6" height="6" fill="#686868"/><rect x="90" y="108" width="6" height="6" fill="#686868"/><rect x="96" y="108" width="6" height="6" fill="#686868"/><rect x="102" y="108" width="6" height="6" fill="#686868"/><rect x="108" y="108" width="6" height="6" fill="#686868"/><rect x="114" y="108" width="6" height="6" fill="#686868"/><rect x="120" y="108" width="6" height="6" fill="#686868"/><rect x="126" y="108" width="6" height="6" fill="#686868"/><rect x="54" y="114" width="6" height="6" fill="#686868"/><rect x="60" y="114" width="6" height="6" fill="#686868"/><rect x="90" y="114" width="6" height="6" fill="#686868"/><rect x="96" y="114" width="6" height="6" fill="#686868"/><rect x="102" y="114" width="6" height="6" fill="#686868"/><rect x="54" y="120" width="6" height="6" fill="#686868"/><rect x="60" y="120" width="6" height="6" fill="#686868"/><rect x="78" y="120" width="6" height="6" fill="#686868"/><rect x="96" y="120" width="6" height="6" fill="#686868"/><rect x="102" y="120" width="6" height="6" fill="#686868"/><rect x="120" y="120" width="6" height="6" fill="#686868"/><rect x="60" y="126" width="6" height="6" fill="#686868"/><rect x="72" y="126" width="6" height="6" fill="#686868"/><rect x="84" y="126" width="6" height="6" fill="#686868"/><rect x="102" y="126" width="6" height="6" fill="#686868"/><rect x="114" y="126" width="6" height="6" fill="#686868"/><rect x="126" y="126" width="6" height="6" fill="#686868"/><rect x="34" y="56" width="76" height="30" rx="4" fill="#fff"/><text x="72" y="69" text-anchor="middle" font-family="sans-serif" font-size="8" fill="#555">QR IMAGE</text><text x="72" y="80" text-anchor="middle" font-family="sans-serif" font-size="7" fill="#777">PLACEHOLDER</text></svg>